# xmcd
#
# Track frame offsets:
#	150
#	15641
#	28673
#	44661
#	62131
#	78124
#	87759
#	100325
#	114287
#	128312
#
# Disc length: 1969 seconds
#
# Revision: 1
# Processed by: cddbd v1.5.2PL0 Copyright (c) Steve Scherf et al.
# Submitted via: audiograbber 1.83.01
#
DISCID=6f07af0a
DTITLE=Sarah Borges and the Broken Singles - Love's Middle Name
DYEAR=2018
DGENRE=Country
TTITLE0=House on a Hill
TTITLE1=Lucky Rocks
TTITLE2=Oh Victoria
TTITLE3=Let Me Try It
TTITLE4=Are You Still Takin Them Pills
TTITLE5=Get as Gone Can Get
TTITLE6=Grow Wings
TTITLE7=Headed Down
TTITLE8=Girlie Book
TTITLE9=I Can't Change It
EXTD=
EXTT0=
EXTT1=
EXTT2=
EXTT3=
EXTT4=
EXTT5=
EXTT6=
EXTT7=
EXTT8=
EXTT9=
PLAYORDER=
